<svg xmlns="http://www.w3.org/2000/svg" viewBox="0 0 888 600">
  <path fill="none" d="M411.109 386.848h65.417v40h-65.417z"/>
  <path d="M431.742 424.473c-2.6 0-4.992-.443-7.175-1.326-2.184-.883-4.083-2.133-5.7-3.75-1.617-1.615-2.867-3.523-3.75-5.725-.884-2.199-1.325-4.6-1.325-7.199s.441-5 1.325-7.201c.883-2.199 2.133-4.107 3.75-5.725 1.616-1.615 3.516-2.865 5.7-3.75 2.183-.883 4.575-1.324 7.175-1.324 1.833 0 3.6.225 5.3.674 1.7.451 3.216 1.125 4.55 2.025.167.1.283.225.35.375.066.15.1.309.1.475 0 .334-.117.584-.35.75-.233.168-.434.25-.6.25a.761.761 0 01-.35-.074c-.1-.051-.2-.092-.3-.125a19.203 19.203 0 00-4.05-1.699 16.309 16.309 0 00-4.65-.65c-3.1 0-5.842.691-8.225 2.074-2.384 1.385-4.25 3.275-5.6 5.676s-2.025 5.15-2.025 8.25.675 5.857 2.025 8.275c1.35 2.416 3.216 4.309 5.6 5.674 2.383 1.367 5.125 2.051 8.225 2.051 1.666 0 3.308-.258 4.925-.775 1.616-.516 3.042-1.191 4.275-2.025l-.2.9v-12.5l.7.65h-9.7c-.268 0-.5-.1-.7-.301a.955.955 0 01-.3-.699c0-.301.1-.541.3-.725s.433-.275.7-.275h10c.3 0 .541.1.725.299.183.201.275.434.275.701v12.549c0 .135-.034.285-.1.451a1.114 1.114 0 01-.35.449c-1.467 1-3.108 1.801-4.925 2.4-1.818.599-3.693.9-5.625.9zm41.298-13.1c0 2.467-.533 4.691-1.6 6.674-1.066 1.984-2.525 3.551-4.375 4.701-1.85 1.148-3.959 1.725-6.324 1.725-2.334 0-4.435-.576-6.3-1.725-1.867-1.15-3.343-2.717-4.426-4.701-1.084-1.982-1.625-4.207-1.625-6.674 0-2.5.541-4.742 1.625-6.727 1.083-1.982 2.559-3.549 4.426-4.699 1.865-1.15 3.966-1.725 6.3-1.725 2.365 0 4.475.574 6.324 1.725s3.309 2.717 4.375 4.699c1.067 1.985 1.6 4.227 1.6 6.727zm-2 0c0-2.168-.441-4.092-1.324-5.775-.884-1.684-2.1-3.018-3.65-4-1.55-.982-3.324-1.475-5.324-1.475-1.968 0-3.733.492-5.3 1.475-1.568.982-2.801 2.316-3.701 4-.899 1.684-1.35 3.607-1.35 5.775 0 2.133.45 4.041 1.35 5.725.9 1.684 2.133 3.018 3.701 4 1.566.982 3.332 1.475 5.3 1.475 2 0 3.774-.492 5.324-1.475 1.551-.982 2.767-2.316 3.65-4 .883-1.684 1.324-3.592 1.324-5.725z" fill="#4C566A"/>
  <g fill="none" stroke="#4C566A" stroke-width="16" stroke-miterlimit="10">
    <path d="M480.959 339.473V256.93h49.281v39.424h-49.281m49.281-123.202v123.202m-110.881 0V256.93H357.76h123.199"/>
    <path d="M394.72 194.713h-36.96v-21.561 123.202"/>
  </g>
</svg>
